<svg width="159" height="36" viewBox="0 0 159 36" fill="none" xmlns="http://www.w3.org/2000/svg">
<g id="Group 5">
<path id="Vector" d="M45.3152 11C39.746 11 35.6293 13.9811 35.0969 18.8851H40.3275C40.4244 16.1451 42.2154 14.7021 45.2183 14.7021C48.4139 14.7021 49.8675 16.3364 49.8675 19.8947V20.1833L41.7799 22.6347C38.5832 23.5968 35 25.7121 35 29.7016C35 33.0675 37.5184 36 42.2644 36C45.988 36 48.1065 34.2231 49.8675 31.5582V35.519H55V20.0384C55 14.4135 51.7075 11 45.3152 11ZM44.2014 32.4428C41.6351 32.4428 40.1337 31.2408 40.1337 29.1731C40.1337 27.2988 41.3923 26.2406 43.62 25.5197L49.8675 23.5968V26.8178C49.8675 30.6636 47.2522 32.4428 44.2014 32.4428Z" fill="#FBFF4B"/>
<path id="Vector_2" d="M70.88 12V25.9764C70.88 30.2592 69.0922 32.1414 65.71 32.1414C62.3278 32.1414 61.1211 30.3534 61.1211 26.9646V12H56V27.6237C56 33.1762 59.3333 36 63.6333 36C67.2889 36 69.3067 33.963 70.88 31.3491V35.5292H76V12H70.88Z" fill="#FBFF4B"/>
<path id="Vector_3" d="M77 31.2L90.0431 16.3684H77V12H94.7587V16.8L81.7167 31.6316H95V36H77V31.2Z" fill="#FBFF4B"/>
<path id="Vector_4" d="M106.493 35.9989C99.7345 35.9989 95 31.6721 95 23.4994C95 15.3268 99.6857 11 106.296 11C112.905 11 117 15.3268 117 22.3461V24.8463H100.425C100.425 29.5092 102.497 32.2979 106.542 32.2979C109.502 32.2979 111.13 30.7598 111.525 28.9331H116.655C115.816 33.2124 112.018 36 106.493 36V35.9989ZM100.425 21.3841H111.919C111.919 17.3935 110.094 14.7021 106.247 14.7021C102.4 14.7021 100.673 17.2022 100.425 21.3841Z" fill="#FBFF4B"/>
<path id="Vector_5" d="M130.488 11C126.69 11 124.638 13.1185 123.071 15.8334V11.4904H118V36H123.071V21.4413C123.071 16.9811 124.89 15.0205 128.287 15.0205C131.684 15.0205 132.928 16.883 132.928 20.3634V36H138V19.873C138 13.7453 134.699 11 130.488 11Z" fill="#FBFF4B"/>
<path id="Vector_6" d="M146.075 24.99C142.488 23.9804 139.294 22.2975 139.294 18.3079C139.294 13.9325 143.029 11 148.926 11C155.806 11 158.755 14.9907 159 18.9802H153.889C153.84 16.7687 152.513 14.6534 148.877 14.6534C145.879 14.6534 144.455 15.8554 144.455 17.7783C144.455 19.5574 145.782 20.3259 147.55 20.7594L152.071 22.01C155.659 23.0196 158.951 24.7025 158.951 28.6921C158.951 33.0675 155.118 36 149.221 36C142.243 36 139.294 32.058 139 28.0198H144.11C144.208 30.1351 145.535 32.3466 149.27 32.3466C152.268 32.3466 153.791 31.1446 153.791 29.2217C153.791 27.4426 152.415 26.7216 150.596 26.1931L146.075 24.9911V24.99Z" fill="#FBFF4B"/>
<g id="Vector_7">
<path d="M7.702 17.1859H18.5933L26.2962 8.59297H26.2971L34 0H23.1069L15.404 8.59297H7.702V0H0V8.59297H7.702V17.1859Z" fill="#FBFF4B"/>
<path d="M7.702 27.407H0V36H7.702V27.407Z" fill="#FBFF4B"/>
<path d="M26.2971 27.407H26.2962L18.5933 18.8141H7.702V27.407L15.404 27.407L23.1069 36H33.9982L26.2971 27.408V27.407Z" fill="#FBFF4B"/>
</g>
</g>
</svg>
